<svg width="208" height="232" viewBox="0 0 208 232" fill="none" xmlns="http://www.w3.org/2000/svg">
<path fill-rule="evenodd" clip-rule="evenodd" d="M114 2.7735C107.812 -0.799155 100.188 -0.799154 94 2.7735L10.943 50.7265C4.75496 54.2992 0.942978 60.9017 0.942978 68.047V163.953C0.942978 171.098 4.75496 177.701 10.943 181.273L94 229.227C100.188 232.799 107.812 232.799 114 229.226L197.057 181.273C203.245 177.701 207.057 171.098 207.057 163.953V68.047C207.057 60.9017 203.245 54.2992 197.057 50.7265L114 2.7735ZM104.5 164C120.24 164 133 151.086 133 135.156C133 128.281 127.691 118.486 121.655 107.351C114.803 94.7086 107.014 80.3394 104.997 66.5555C104.711 64.5995 102.098 63.9112 101.151 65.6466C91.6896 82.9861 76 121.072 76 135.156C76 151.086 88.7599 164 104.5 164Z" fill="#DE3F5C"/>
</svg>
