<svg width="208" height="232" viewBox="0 0 208 232" fill="none" xmlns="http://www.w3.org/2000/svg">
<rect width="208" height="232" fill="#E5E5E5"/>
<path fill-rule="evenodd" clip-rule="evenodd" d="M114 2.7735C107.812 -0.799157 100.188 -0.799156 94 2.7735L10.943 50.7265C4.75496 54.2991 0.942978 60.9017 0.942978 68.047V163.953C0.942978 171.098 4.75496 177.701 10.943 181.273L94 229.227C100.188 232.799 107.812 232.799 114 229.226L197.057 181.273C203.245 177.701 207.057 171.098 207.057 163.953V68.047C207.057 60.9017 203.245 54.2991 197.057 50.7265L114 2.7735ZM104.5 170C120.24 170 133 157.086 133 141.156C133 134.281 127.691 124.486 121.655 113.351C114.803 100.709 107.014 86.3394 104.997 72.5555C104.711 70.5995 102.098 69.9112 101.151 71.6466C91.6896 88.9861 76 127.072 76 141.156C76 157.086 88.7599 170 104.5 170Z" fill="#19859D"/>
</svg>
